<?xml version="1.0" encoding="utf-8"?>
<!-- Generator: Adobe Illustrator 21.0.2, SVG Export Plug-In . SVG Version: 6.00 Build 0)  -->
<svg version="1.1" id="Layer_1" xmlns="http://www.w3.org/2000/svg" xmlns:xlink="http://www.w3.org/1999/xlink" x="0px" y="0px"
	 viewBox="0 0 160 90" style="enable-background:new 0 0 160 90;" xml:space="preserve">
<style type="text/css">
	.st0{fill:#3D3D3C;}
	.st1{fill:#727272;}
	.st2{fill-rule:evenodd;clip-rule:evenodd;fill:#72994b;}
	.st3{fill:#72994b;}
</style>
<g>
	<g>
		<path class="st0" d="M74.6,73.3C74.6,73.3,74.6,73.3,74.6,73.3c0-0.7,0-1.3,0-2c0-0.1,0-0.2-0.1-0.2c-0.3,0-0.6,0-0.9,0
			c-0.1,0-0.1,0-0.1,0.1c0,0,0,0,0,0.1c0,0.8,0,1.6,0,2.4c0,0.3,0,0.5,0,0.8c0,0.1,0,0.2-0.1,0.2c0,0,0,0,0,0.1
			c-0.2,0.3-0.5,0.5-0.8,0.6c-0.2,0.1-0.5,0.1-0.7,0c-0.1-0.1-0.2-0.1-0.3-0.3c-0.1-0.2-0.1-0.3-0.1-0.5c0-1.1,0-2.1,0-3.2
			c0-0.2,0-0.2-0.2-0.2c-0.2,0-0.5,0-0.7,0c0,0-0.1,0-0.1,0c-0.1,0-0.1,0-0.1,0.1c0,0,0,0.1,0,0.1c0,0.5,0,1,0,1.5
			c0,0.6,0,1.2,0,1.8c0,0.3,0.1,0.7,0.2,1c0.1,0.1,0.2,0.3,0.3,0.4c0.2,0.1,0.4,0.2,0.7,0.3c0.3,0,0.5,0,0.8-0.1
			c0.4-0.1,0.7-0.3,0.9-0.5c0,0,0,0,0,0c0.1,0,0.1,0,0.1,0c0,0,0,0.1,0,0.1c0,0.1,0,0.2,0,0.3c0,0.1,0,0.2,0.2,0.2
			c0.2,0,0.5,0,0.7,0c0,0,0,0,0.1,0c0.1,0,0.1-0.1,0.1-0.2c0-0.1-0.1-0.2-0.1-0.3c0-0.3,0-0.5,0-0.8C74.6,74.3,74.6,73.8,74.6,73.3z
			 M106.1,73.2C106.1,73.2,106.1,73.2,106.1,73.2c0-0.7,0-1.3,0-2c0,0,0,0,0,0c0-0.1,0-0.1-0.1-0.1c0,0-0.1,0-0.1,0
			c-0.2,0-0.5,0-0.7,0c-0.1,0-0.2,0-0.2,0.2c0,1,0,2.1,0,3.1c0,0,0,0.1,0,0.1c0,0,0,0.1-0.1,0.1c-0.2,0.2-0.4,0.4-0.6,0.6
			c-0.3,0.2-0.6,0.2-1,0.1c-0.1-0.1-0.2-0.1-0.3-0.3c-0.1-0.2-0.1-0.4-0.1-0.5c0-1,0-2,0-3.1c0-0.1,0-0.1,0-0.2c0-0.1,0-0.1-0.1-0.1
			c-0.3,0-0.5,0-0.8,0c-0.1,0-0.2,0-0.2,0.2c0,1.1,0,2.2,0,3.3c0,0.2,0,0.5,0.1,0.7c0,0.1,0.1,0.3,0.2,0.4c0.1,0.1,0.2,0.2,0.3,0.3
			c0.2,0.1,0.4,0.2,0.7,0.3c0.3,0,0.5,0,0.8-0.1c0.2-0.1,0.4-0.1,0.6-0.3c0.1-0.1,0.2-0.1,0.3-0.2c0,0,0.1-0.1,0.1-0.1
			c0,0,0.1,0,0.1,0c0,0,0,0.1,0,0.1c0,0.1,0,0.2,0,0.3c0,0.1,0,0.1,0.2,0.1c0.3,0,0.5,0,0.8,0c0,0,0,0,0,0c0.1,0,0.1-0.1,0.1-0.2
			c-0.1-0.3-0.1-0.6-0.1-0.9C106.1,74.5,106.1,73.8,106.1,73.2z M119.5,73.6c0,0.8,0,1.6,0,2.4c0,0.1,0,0.2,0.2,0.2
			c0.3,0,0.5,0,0.8,0c0.1,0,0.2,0,0.2-0.2c0-0.6,0-1.1,0-1.7c0-0.5,0-1,0-1.4c0-0.2,0-0.3,0.2-0.4c0.1-0.1,0.2-0.2,0.3-0.3
			c0.2-0.1,0.4-0.2,0.6-0.3c0.2,0,0.3,0,0.5,0.1c0.1,0,0.2,0.1,0.3,0.2c0.1,0.2,0.1,0.4,0.1,0.6c0,1.1,0,2.1,0,3.2
			c0,0.1,0,0.2,0.2,0.2c0.3,0,0.5,0,0.8,0c0,0,0,0,0,0c0.1,0,0.1,0,0.1-0.1c0-0.1,0-0.1,0-0.2c0-1.1,0-2.1,0-3.2
			c0-0.3,0-0.5-0.1-0.8c-0.1-0.2-0.2-0.4-0.4-0.6c-0.3-0.2-0.5-0.3-0.9-0.3c-0.2,0-0.4,0-0.7,0.1c-0.3,0.1-0.5,0.2-0.7,0.3
			c-0.1,0.1-0.1,0.1-0.2,0.2c0,0-0.1,0.1-0.1,0c0,0,0-0.1,0-0.1c0-0.1,0-0.1,0-0.2c0-0.1,0-0.2-0.2-0.2c-0.2,0-0.4,0-0.7,0
			c0,0,0,0-0.1,0c-0.1,0-0.1,0-0.1,0.1c0,0,0,0,0,0C119.5,72,119.5,72.8,119.5,73.6z M96,86.4c0,0.8,0,1.6,0,2.3
			c0,0.2,0,0.2,0.2,0.2c0.2,0,0.5,0,0.7,0c0,0,0.1,0,0.1,0c0.1,0,0.1,0,0.1-0.1c0-0.1,0-0.2,0-0.2c0-0.9,0-1.8,0-2.7
			c0-0.1,0-0.2,0-0.2c0-0.1,0-0.2,0.1-0.3c0.1-0.1,0.2-0.2,0.3-0.3c0.2-0.2,0.4-0.3,0.6-0.4c0.2-0.1,0.4,0,0.6,0.1
			c0.1,0,0.2,0.1,0.2,0.2c0.1,0.2,0.1,0.4,0.1,0.6c0,1,0,2,0,3c0,0.1,0,0.1,0,0.2c0,0.1,0,0.2,0.1,0.2c0,0,0,0,0.1,0
			c0.2,0,0.5,0,0.7,0c0.1,0,0.2,0,0.2-0.2c0-1.1,0-2.3,0-3.4c0-0.3,0-0.5-0.1-0.8c-0.1-0.2-0.2-0.4-0.4-0.6
			c-0.3-0.2-0.5-0.3-0.9-0.3c-0.2,0-0.4,0-0.7,0.1c-0.3,0.1-0.5,0.2-0.7,0.4c-0.1,0.1-0.1,0.1-0.2,0.2c-0.1,0.1-0.1,0-0.1-0.1
			c0-0.1,0-0.2,0-0.2c0-0.1,0-0.2-0.2-0.2c-0.2,0-0.4,0-0.6,0c-0.1,0-0.1,0-0.2,0c-0.1,0-0.1,0-0.1,0.1c0,0,0,0,0,0.1
			C96,84.9,96,85.7,96,86.4z M98.2,73.5C98.2,73.5,98.2,73.5,98.2,73.5c0,0.4,0,0.9,0,1.3c0,0.2,0.1,0.5,0.1,0.7
			c0.2,0.4,0.5,0.6,0.9,0.7c0.2,0,0.5,0.1,0.7,0c0.3,0,0.5-0.1,0.8-0.2c0.1-0.1,0.1-0.1,0.1-0.2c-0.1-0.2-0.1-0.4-0.2-0.5
			c0-0.1-0.1-0.1-0.2-0.1c-0.1,0-0.3,0.1-0.4,0.1c-0.1,0-0.2,0-0.3,0c-0.1,0-0.2-0.1-0.3-0.2c-0.1-0.1-0.1-0.3-0.1-0.4
			c0-0.9,0-1.7,0-2.6c0-0.1,0-0.2,0.2-0.2c0.3,0,0.5,0,0.8,0c0,0,0.1,0,0.1,0c0.1,0,0.1,0,0.1-0.1c0-0.2,0-0.4,0-0.6
			c0-0.1,0-0.1-0.1-0.1c0,0-0.1,0-0.1,0c-0.3,0-0.5,0-0.8,0c0,0-0.1,0-0.1,0c-0.1,0-0.1,0-0.1-0.1c0,0,0-0.1,0-0.1c0-0.3,0-0.7,0-1
			c0-0.1,0-0.2-0.2-0.2c-0.3,0-0.5,0-0.8,0c-0.1,0-0.2,0-0.2,0.2c0,0.3,0,0.6,0,0.9c0,0.1,0,0.1,0,0.2c0,0.1,0,0.1-0.1,0.1
			c0,0-0.1,0-0.1,0c-0.1,0-0.3,0-0.4,0c-0.1,0-0.1,0-0.1,0.1c0,0.2,0,0.3,0,0.5c0,0.2,0,0.2,0.2,0.2c0.1,0,0.3,0,0.4,0
			c0.2,0,0.2,0,0.2,0.2C98.2,72.6,98.2,73.1,98.2,73.5z M83.3,86.4C83.3,86.4,83.3,86.4,83.3,86.4c0,0.4,0,0.9,0,1.3
			c0,0.2,0.1,0.5,0.1,0.7c0.2,0.4,0.5,0.6,0.9,0.7c0.2,0,0.5,0.1,0.7,0c0.3,0,0.5-0.1,0.7-0.2c0.1-0.1,0.1-0.1,0.1-0.2
			c0,0,0-0.1-0.1-0.1c-0.1-0.1-0.1-0.3-0.1-0.4c0-0.1-0.1-0.1-0.1-0.1c0,0,0,0-0.1,0c-0.2,0.1-0.3,0.1-0.5,0.1
			c-0.2,0-0.4-0.1-0.5-0.3c-0.1-0.1-0.1-0.2-0.1-0.4c0-0.8,0-1.6,0-2.4c0-0.1,0-0.1,0-0.2c0-0.1,0-0.2,0.2-0.2c0.1,0,0.3,0,0.4,0
			c0.2,0,0.3,0,0.5,0c0.1,0,0.2,0,0.2-0.2c0-0.2,0-0.4,0-0.6c0-0.1,0-0.1-0.1-0.1c0,0-0.1,0-0.1,0c-0.3,0-0.5,0-0.8,0
			c0,0-0.1,0-0.1,0c-0.1,0-0.1,0-0.1-0.1c0,0,0-0.1,0-0.1c0-0.3,0-0.7,0-1c0-0.1,0-0.2-0.2-0.2c-0.3,0-0.5,0-0.8,0
			c-0.1,0-0.2,0-0.2,0.2c0,0.3,0,0.7,0,1c0,0.2,0,0.2-0.2,0.2c-0.2,0-0.3,0-0.5,0c-0.1,0-0.1,0-0.1,0.1c0,0.2,0,0.4,0,0.5
			c0,0.1,0,0.2,0.2,0.2c0.1,0,0.3,0,0.4,0c0.2,0,0.2,0,0.2,0.2C83.3,85.4,83.3,85.9,83.3,86.4z M82,73.5C82,73.5,82,73.5,82,73.5
			c0,0.4,0,0.9,0,1.3c0,0.3,0.1,0.6,0.2,0.9c0.1,0.2,0.3,0.3,0.5,0.4c0.1,0.1,0.3,0.1,0.5,0.1c0.5,0,0.9,0,1.3-0.2
			c0.1,0,0.1-0.1,0.1-0.2c-0.1-0.2-0.1-0.4-0.2-0.5c0-0.1-0.1-0.1-0.2-0.1c-0.1,0-0.3,0.1-0.4,0.1c-0.1,0-0.2,0-0.3,0
			c-0.1,0-0.3-0.1-0.3-0.2c-0.1-0.1-0.1-0.3-0.1-0.4c0-0.8,0-1.7,0-2.5c0-0.2,0-0.2,0.2-0.2c0.3,0,0.5,0,0.8,0c0.2,0,0.2,0,0.2-0.2
			c0-0.2,0-0.3,0-0.5c0-0.1,0-0.2-0.2-0.2c0,0-0.1,0-0.1,0c-0.3,0-0.5,0-0.8,0c-0.1,0-0.2,0-0.2-0.2c0-0.2,0-0.5,0-0.7
			c0-0.1,0-0.3,0-0.4c0-0.1,0-0.1-0.1-0.1c-0.1,0-0.2,0-0.3,0c-0.2,0-0.4,0-0.6,0c-0.1,0-0.1,0-0.1,0.2c0,0.3,0,0.6,0,0.9
			c0,0.1,0,0.1,0,0.2c0,0.1,0,0.1-0.1,0.1c0,0-0.1,0-0.1,0c-0.1,0-0.3,0-0.4,0c-0.1,0-0.1,0-0.1,0.2c0,0.2,0,0.3,0,0.5
			c0,0.1,0,0.2,0.2,0.2c0.1,0,0.3,0,0.4,0c0.2,0,0.2,0,0.2,0.2C82,72.6,82,73.1,82,73.5z M125.6,73.5
			C125.6,73.5,125.6,73.5,125.6,73.5c0,0.4,0,0.9,0,1.3c0,0.3,0.1,0.6,0.2,0.9c0.1,0.2,0.3,0.3,0.5,0.4c0.2,0.1,0.3,0.1,0.5,0.1
			c0.5,0,0.9,0,1.3-0.2c0.1,0,0.1-0.1,0.1-0.2c-0.1-0.2-0.1-0.3-0.2-0.5c0-0.1-0.1-0.1-0.2-0.1c-0.1,0.1-0.3,0.1-0.4,0.1
			c-0.3,0-0.5,0-0.6-0.4c0-0.1,0-0.2,0-0.2c0-0.9,0-1.7,0-2.6c0,0,0,0,0-0.1c0-0.1,0-0.1,0.1-0.1c0,0,0.1,0,0.1,0c0.3,0,0.5,0,0.8,0
			c0.2,0,0.2,0,0.2-0.2c0-0.2,0-0.3,0-0.5c0-0.1,0-0.1-0.1-0.1c0,0-0.1,0-0.1,0c-0.3,0-0.5,0-0.8,0c-0.2,0-0.2,0-0.2-0.2
			c0-0.3,0-0.7,0-1c0-0.1,0-0.2-0.1-0.2c-0.3,0-0.6,0-0.8,0c-0.1,0-0.1,0-0.1,0.2c0,0.3,0,0.7,0,1c0,0.2,0,0.2-0.2,0.2
			c-0.2,0-0.3,0-0.5,0c-0.1,0-0.1,0-0.1,0.1c0,0.2,0,0.3,0,0.5c0,0.2,0,0.2,0.2,0.2c0.1,0,0.3,0,0.4,0c0.1,0,0.2,0,0.2,0.2
			c0,0,0,0,0,0.1C125.6,72.6,125.6,73.1,125.6,73.5z M56.1,89.1c0.1,0,0.2,0,0.3,0c0.3,0,0.5-0.1,0.8-0.2c0.4-0.2,0.6-0.5,0.7-0.9
			c0.1-0.2,0.1-0.5,0-0.8c0-0.2-0.1-0.3-0.2-0.5c-0.2-0.3-0.5-0.5-0.8-0.6c-0.1,0-0.2-0.1-0.3-0.1c-0.2-0.1-0.3-0.2-0.5-0.2
			c-0.2-0.1-0.3-0.2-0.5-0.3c-0.2-0.2-0.2-0.6,0.1-0.8c0.1-0.1,0.2-0.1,0.4-0.1c0.3,0,0.5,0,0.7,0.1c0.1,0,0.2,0.1,0.3,0.1
			c0.1,0.1,0.2,0.1,0.2-0.1c0.1-0.1,0.1-0.2,0.2-0.3c0-0.1,0.1-0.1,0.1-0.2c0-0.1,0-0.1,0-0.1c-0.1,0-0.1-0.1-0.2-0.1
			c-0.4-0.2-0.8-0.3-1.2-0.3c-0.3,0-0.6,0.1-0.8,0.1c-0.1,0-0.2,0.1-0.3,0.1c-0.3,0.2-0.5,0.5-0.6,0.8c-0.1,0.6,0,1.1,0.5,1.5
			c0.2,0.1,0.4,0.3,0.6,0.4c0.1,0,0.2,0.1,0.3,0.1c0.2,0.1,0.3,0.1,0.5,0.2c0.1,0.1,0.3,0.1,0.4,0.3c0,0.1,0.1,0.1,0.1,0.2
			c0,0.2,0,0.4-0.3,0.5c-0.1,0.1-0.3,0.1-0.4,0.1c-0.4,0-0.7,0-1-0.2c-0.1,0-0.2-0.1-0.3-0.2c-0.1-0.1-0.1-0.1-0.2,0
			c-0.1,0.2-0.2,0.4-0.3,0.6c0,0.1,0,0.1,0,0.2c0.1,0,0.2,0.1,0.3,0.1c0.2,0.1,0.4,0.2,0.6,0.2C55.6,89.1,55.8,89.1,56.1,89.1z
			 M94.8,76.3c0.1,0,0.3,0,0.5-0.1c0.3,0,0.5-0.1,0.7-0.3c0.2-0.1,0.3-0.3,0.4-0.5c0.1-0.3,0.2-0.5,0.1-0.8c0-0.2-0.1-0.5-0.3-0.7
			c-0.2-0.2-0.5-0.4-0.8-0.6c-0.1,0-0.2-0.1-0.3-0.1C95.1,73.1,95,73,94.8,73c-0.2-0.1-0.4-0.2-0.5-0.3c-0.2-0.2-0.1-0.6,0.1-0.7
			c0.2-0.1,0.4-0.1,0.6-0.1c0.3,0,0.6,0.1,0.8,0.2c0,0,0.1,0,0.1,0c0.1,0,0.1,0,0.2-0.1c0.1-0.2,0.2-0.4,0.3-0.5
			c0-0.1,0-0.1-0.1-0.2c-0.1-0.1-0.2-0.1-0.3-0.2c-0.5-0.2-1-0.3-1.5-0.2c-0.3,0-0.6,0.1-0.8,0.3c-0.3,0.2-0.5,0.6-0.5,1
			c-0.1,0.6,0.2,1.1,0.7,1.4c0.3,0.1,0.5,0.3,0.8,0.4c0.2,0.1,0.4,0.2,0.5,0.3c0.1,0.1,0.2,0.1,0.3,0.2c0.1,0.1,0.1,0.3,0,0.5
			c-0.1,0.1-0.2,0.2-0.3,0.3c-0.1,0-0.2,0.1-0.3,0.1c-0.3,0-0.7,0-1-0.2c-0.1,0-0.2-0.1-0.3-0.2c-0.1,0-0.1,0-0.2,0
			c-0.1,0.2-0.2,0.4-0.3,0.6c0,0.1,0,0.1,0.1,0.2c0.1,0.1,0.2,0.1,0.3,0.1c0.2,0.1,0.4,0.1,0.6,0.2C94.2,76.2,94.5,76.2,94.8,76.3z
			 M60.6,89.1c0.1,0,0.2,0,0.3,0c0.4,0,0.7-0.1,1-0.3c0.2-0.1,0.3-0.3,0.4-0.5c0.1-0.3,0.1-0.5,0.1-0.8c0-0.3-0.1-0.5-0.3-0.7
			c-0.2-0.2-0.5-0.4-0.7-0.5c-0.1,0-0.2-0.1-0.3-0.1c-0.2-0.1-0.3-0.1-0.5-0.2c-0.2-0.1-0.4-0.2-0.5-0.4c-0.2-0.2-0.1-0.5,0.1-0.7
			c0.1-0.1,0.3-0.1,0.4-0.1c0.2,0,0.4,0,0.6,0.1c0.1,0,0.2,0.1,0.4,0.2c0,0,0.1,0,0.1,0c0.1,0,0.1,0,0.1-0.1
			c0.1-0.2,0.2-0.4,0.3-0.5c0-0.1,0-0.1,0-0.2c-0.1-0.1-0.3-0.1-0.4-0.2c-0.3-0.1-0.6-0.2-1-0.2c-0.3,0-0.7,0.1-1,0.2
			c-0.2,0.1-0.4,0.2-0.5,0.4c-0.3,0.4-0.3,0.9-0.2,1.3c0.1,0.3,0.4,0.6,0.7,0.7c0.1,0.1,0.2,0.1,0.4,0.2c0.1,0,0.2,0.1,0.3,0.1
			c0.2,0.1,0.3,0.1,0.5,0.2c0.1,0.1,0.3,0.2,0.4,0.3c0.1,0.1,0.1,0.1,0.1,0.2c0,0.2-0.1,0.3-0.2,0.5c-0.1,0.1-0.3,0.1-0.5,0.1
			c-0.4,0-0.7,0-1-0.2c-0.1,0-0.2-0.1-0.3-0.2c-0.1,0-0.1,0-0.1,0c-0.1,0.2-0.2,0.4-0.3,0.6c0,0.1,0,0.1,0.1,0.2
			c0.1,0,0.2,0.1,0.2,0.1c0.2,0.1,0.4,0.1,0.6,0.2C60.1,89.1,60.3,89.1,60.6,89.1z M69.5,86.5c0,0.3,0,0.6,0.1,0.8
			c0.1,0.3,0.2,0.5,0.3,0.8c0.1,0.2,0.3,0.4,0.5,0.6c0.2,0.1,0.4,0.3,0.6,0.3c0.4,0.1,0.8,0.2,1.2,0.1c0.4-0.1,0.8-0.1,1.1-0.3
			c0.1-0.1,0.1-0.1,0.1-0.3c-0.1-0.1-0.1-0.3-0.2-0.4c-0.1-0.1-0.1-0.1-0.2-0.1c0,0-0.1,0-0.1,0c-0.1,0-0.1,0.1-0.2,0.1
			c-0.2,0.1-0.4,0.1-0.5,0.1c-0.3,0-0.6,0-0.8-0.1c-0.2-0.1-0.4-0.3-0.5-0.6c-0.1-0.2-0.2-0.5-0.2-0.7c-0.1-0.5,0-1,0.2-1.4
			c0.1-0.2,0.3-0.4,0.5-0.5c0.3-0.1,0.5-0.2,0.8-0.2c0.3,0,0.6,0.1,0.8,0.3c0.1,0.1,0.1,0.1,0.2,0c0.1-0.2,0.2-0.4,0.3-0.6
			c0-0.1,0-0.1,0-0.1c-0.1,0-0.2-0.1-0.3-0.1c-0.2-0.1-0.4-0.1-0.6-0.2c-0.3-0.1-0.5-0.1-0.8-0.1c-0.2,0-0.4,0.1-0.6,0.1
			c-0.3,0.1-0.5,0.2-0.7,0.3c-0.4,0.3-0.7,0.7-0.9,1.2C69.6,85.8,69.5,86.1,69.5,86.5z M87.3,86.4C87.3,86.4,87.3,86.4,87.3,86.4
			c0,0.5,0,1,0,1.5c0,0.3,0,0.6,0,0.9c0,0.1,0,0.2,0.1,0.2c0.3,0,0.5,0,0.8,0c0.1,0,0.2,0,0.2-0.2c0-1.6,0-3.1,0-4.7
			c0-0.1,0-0.2-0.2-0.2c-0.2,0-0.4,0-0.5,0c-0.1,0-0.2,0-0.3,0c-0.1,0-0.1,0-0.1,0.1c0,0,0,0,0,0C87.3,84.9,87.3,85.7,87.3,86.4z
			 M74.9,86.4c0,0.8,0,1.6,0,2.3c0,0.2,0,0.2,0.2,0.2c0.2,0,0.5,0,0.7,0c0,0,0.1,0,0.1,0c0.1,0,0.1,0,0.1-0.1c0-0.1,0-0.1,0-0.2
			c0-1.5,0-2.9,0-4.4c0-0.1,0-0.1,0-0.2c0-0.1,0-0.1-0.1-0.1c0,0,0,0-0.1,0c-0.3,0-0.5,0-0.8,0c-0.1,0-0.2,0-0.2,0.2
			C74.9,84.9,74.9,85.7,74.9,86.4z M88.5,82.5c0-0.3-0.3-0.7-0.7-0.7c-0.4,0-0.7,0.4-0.7,0.7c0,0.5,0.4,0.7,0.7,0.8
			C88.1,83.2,88.6,82.8,88.5,82.5z M76.2,82.5c0-0.3-0.3-0.7-0.7-0.7c-0.4,0-0.7,0.4-0.7,0.7c0,0.4,0.3,0.7,0.7,0.8
			C75.8,83.2,76.2,82.8,76.2,82.5z"/>
		<path class="st0" d="M74.6,73.3c0,0.5,0,1.1,0,1.6c0,0.3,0,0.5,0,0.8c0,0.1,0,0.2,0.1,0.3c0,0.1,0,0.1-0.1,0.2c0,0,0,0-0.1,0
			c-0.2,0-0.5,0-0.7,0c-0.1,0-0.2,0-0.2-0.2c0-0.1,0-0.2,0-0.3c0,0,0-0.1,0-0.1c0-0.1-0.1-0.1-0.1,0c0,0,0,0,0,0
			c-0.2,0.3-0.6,0.4-0.9,0.5c-0.3,0.1-0.5,0.1-0.8,0.1c-0.2,0-0.5-0.1-0.7-0.3c-0.1-0.1-0.2-0.2-0.3-0.4c-0.2-0.3-0.2-0.6-0.2-1
			c0-0.6,0-1.2,0-1.8c0-0.5,0-1,0-1.5c0,0,0-0.1,0-0.1c0-0.1,0-0.1,0.1-0.1c0,0,0.1,0,0.1,0c0.2,0,0.5,0,0.7,0c0.2,0,0.2,0,0.2,0.2
			c0,1.1,0,2.1,0,3.2c0,0.2,0,0.4,0.1,0.5c0.1,0.1,0.1,0.2,0.3,0.3c0.2,0.1,0.5,0.1,0.7,0c0.3-0.1,0.6-0.3,0.8-0.6c0,0,0,0,0-0.1
			c0.1-0.1,0.1-0.1,0.1-0.2c0-0.3,0-0.5,0-0.8c0-0.8,0-1.6,0-2.4c0,0,0,0,0-0.1c0-0.1,0-0.1,0.1-0.1c0.3,0,0.6,0,0.9,0
			c0.1,0,0.1,0,0.1,0.2C74.6,71.9,74.6,72.6,74.6,73.3C74.6,73.3,74.6,73.3,74.6,73.3z"/>
		<path class="st0" d="M106.1,73.2c0,0.6,0,1.2,0,1.9c0,0.3,0,0.6,0.1,0.9c0,0.1,0,0.1-0.1,0.2c0,0,0,0,0,0c-0.3,0-0.5,0-0.8,0
			c-0.1,0-0.1,0-0.2-0.1c0-0.1,0-0.2,0-0.3c0,0,0-0.1,0-0.1c0-0.1-0.1-0.1-0.1,0c0,0-0.1,0.1-0.1,0.1c-0.1,0.1-0.2,0.2-0.3,0.2
			c-0.2,0.1-0.4,0.2-0.6,0.3c-0.3,0.1-0.5,0.1-0.8,0.1c-0.3,0-0.5-0.1-0.7-0.3c-0.1-0.1-0.2-0.2-0.3-0.3c-0.1-0.1-0.1-0.3-0.2-0.4
			c0-0.2-0.1-0.5-0.1-0.7c0-1.1,0-2.2,0-3.3c0-0.1,0-0.2,0.2-0.2c0.3,0,0.5,0,0.8,0c0.1,0,0.1,0,0.1,0.1c0,0.1,0,0.1,0,0.2
			c0,1,0,2,0,3.1c0,0.2,0,0.4,0.1,0.5c0.1,0.1,0.2,0.2,0.3,0.3c0.3,0.1,0.6,0.1,1-0.1c0.3-0.1,0.5-0.3,0.6-0.6c0,0,0-0.1,0.1-0.1
			c0,0,0-0.1,0-0.1c0-1,0-2.1,0-3.1c0-0.1,0-0.2,0.2-0.2c0.2,0,0.5,0,0.7,0c0,0,0.1,0,0.1,0c0.1,0,0.1,0,0.1,0.1c0,0,0,0,0,0
			C106.1,71.9,106.1,72.6,106.1,73.2C106.1,73.2,106.1,73.2,106.1,73.2z"/>
		<path class="st0" d="M119.5,73.6c0-0.8,0-1.5,0-2.3c0,0,0,0,0,0c0-0.1,0-0.1,0.1-0.1c0,0,0,0,0.1,0c0.2,0,0.4,0,0.7,0
			c0.1,0,0.2,0,0.2,0.2c0,0.1,0,0.1,0,0.2c0,0,0,0.1,0,0.1c0,0,0.1,0,0.1,0c0.1-0.1,0.1-0.1,0.2-0.2c0.2-0.2,0.4-0.3,0.7-0.3
			c0.2-0.1,0.4-0.1,0.7-0.1c0.3,0,0.6,0.1,0.9,0.3c0.2,0.1,0.3,0.3,0.4,0.6c0.1,0.2,0.1,0.5,0.1,0.8c0,1.1,0,2.1,0,3.2
			c0,0.1,0,0.1,0,0.2c0,0.1,0,0.1-0.1,0.1c0,0,0,0,0,0c-0.3,0-0.5,0-0.8,0c-0.1,0-0.2,0-0.2-0.2c0-1.1,0-2.1,0-3.2
			c0-0.2,0-0.4-0.1-0.6c-0.1-0.1-0.1-0.2-0.3-0.2c-0.2-0.1-0.3-0.1-0.5-0.1c-0.2,0-0.4,0.1-0.6,0.3c-0.1,0.1-0.2,0.2-0.3,0.3
			c-0.1,0.1-0.2,0.2-0.2,0.4c0,0.5,0,1,0,1.4c0,0.6,0,1.1,0,1.7c0,0.1,0,0.2-0.2,0.2c-0.3,0-0.5,0-0.8,0c-0.1,0-0.2,0-0.2-0.2
			C119.5,75.2,119.5,74.4,119.5,73.6z"/>
		<path class="st0" d="M96,86.4c0-0.8,0-1.6,0-2.3c0,0,0,0,0-0.1c0-0.1,0-0.1,0.1-0.1c0.1,0,0.1,0,0.2,0c0.2,0,0.4,0,0.6,0
			c0.1,0,0.2,0,0.2,0.2c0,0.1,0,0.2,0,0.2c0,0.1,0.1,0.1,0.1,0.1c0.1-0.1,0.1-0.1,0.2-0.2c0.2-0.2,0.4-0.3,0.7-0.4
			c0.2-0.1,0.4-0.1,0.7-0.1c0.3,0,0.6,0.1,0.9,0.3c0.2,0.1,0.3,0.3,0.4,0.6c0.1,0.3,0.1,0.5,0.1,0.8c0,1.1,0,2.3,0,3.4
			c0,0.1,0,0.2-0.2,0.2c-0.2,0-0.5,0-0.7,0c0,0,0,0-0.1,0c-0.1,0-0.2,0-0.1-0.2c0-0.1,0-0.1,0-0.2c0-1,0-2,0-3c0-0.2,0-0.4-0.1-0.6
			c-0.1-0.1-0.1-0.2-0.2-0.2c-0.2-0.1-0.4-0.1-0.6-0.1c-0.2,0.1-0.5,0.2-0.6,0.4c-0.1,0.1-0.2,0.2-0.3,0.3c-0.1,0.1-0.1,0.2-0.1,0.3
			c0,0.1,0,0.2,0,0.2c0,0.9,0,1.8,0,2.7c0,0.1,0,0.2,0,0.2c0,0.1,0,0.1-0.1,0.1c0,0-0.1,0-0.1,0c-0.2,0-0.5,0-0.7,0
			c-0.2,0-0.2,0-0.2-0.2C96,88,96,87.2,96,86.4z"/>
		<path class="st0" d="M98.2,73.5c0-0.5,0-0.9,0-1.4c0-0.2,0-0.2-0.2-0.2c-0.1,0-0.3,0-0.4,0c-0.2,0-0.2,0-0.2-0.2
			c0-0.2,0-0.3,0-0.5c0-0.1,0-0.1,0.1-0.1c0.1,0,0.3,0,0.4,0c0,0,0.1,0,0.1,0c0.1,0,0.1,0,0.1-0.1c0-0.1,0-0.1,0-0.2
			c0-0.3,0-0.6,0-0.9c0-0.1,0-0.2,0.2-0.2c0.3,0,0.5,0,0.8,0c0.1,0,0.2,0,0.2,0.2c0,0.3,0,0.7,0,1c0,0,0,0.1,0,0.1
			c0,0.1,0,0.1,0.1,0.1c0,0,0.1,0,0.1,0c0.3,0,0.5,0,0.8,0c0,0,0.1,0,0.1,0c0.1,0,0.1,0,0.1,0.1c0,0.2,0,0.4,0,0.6
			c0,0.1,0,0.1-0.1,0.1c0,0-0.1,0-0.1,0c-0.3,0-0.5,0-0.8,0c-0.1,0-0.2,0-0.2,0.2c0,0.9,0,1.7,0,2.6c0,0.1,0,0.3,0.1,0.4
			c0.1,0.1,0.2,0.2,0.3,0.2c0.1,0,0.2,0,0.3,0c0.1,0,0.3-0.1,0.4-0.1c0.1,0,0.1,0,0.2,0.1c0.1,0.2,0.1,0.4,0.2,0.5
			c0,0.1,0,0.1-0.1,0.2c-0.2,0.1-0.5,0.2-0.8,0.2c-0.2,0-0.5,0-0.7,0c-0.4-0.1-0.8-0.3-0.9-0.7c-0.1-0.2-0.1-0.5-0.1-0.7
			C98.2,74.4,98.2,74,98.2,73.5C98.2,73.5,98.2,73.5,98.2,73.5z"/>
		<path class="st0" d="M83.3,86.4c0-0.5,0-0.9,0-1.4c0-0.2,0-0.2-0.2-0.2c-0.1,0-0.3,0-0.4,0c-0.1,0-0.2,0-0.2-0.2
			c0-0.2,0-0.4,0-0.5c0-0.1,0-0.1,0.1-0.1c0.2,0,0.3,0,0.5,0c0.2,0,0.2,0,0.2-0.2c0-0.3,0-0.7,0-1c0-0.1,0-0.2,0.2-0.2
			c0.3,0,0.5,0,0.8,0c0.1,0,0.2,0,0.2,0.2c0,0.3,0,0.7,0,1c0,0,0,0.1,0,0.1c0,0.1,0,0.1,0.1,0.1c0,0,0.1,0,0.1,0c0.3,0,0.5,0,0.8,0
			c0,0,0.1,0,0.1,0c0.1,0,0.1,0,0.1,0.1c0,0.2,0,0.4,0,0.6c0,0.1,0,0.2-0.2,0.2c-0.2,0-0.3,0-0.5,0c-0.1,0-0.3,0-0.4,0
			c-0.1,0-0.2,0-0.2,0.2c0,0.1,0,0.1,0,0.2c0,0.8,0,1.6,0,2.4c0,0.1,0,0.3,0.1,0.4c0.1,0.2,0.3,0.3,0.5,0.3c0.2,0,0.3-0.1,0.5-0.1
			c0,0,0,0,0.1,0c0.1,0,0.1,0,0.1,0.1c0.1,0.1,0.1,0.3,0.1,0.4c0,0.1,0,0.1,0.1,0.1c0.1,0.1,0,0.2-0.1,0.2C85.5,89,85.3,89,85,89.1
			c-0.2,0-0.5,0-0.7,0c-0.4-0.1-0.7-0.3-0.9-0.7c-0.1-0.2-0.1-0.5-0.1-0.7C83.3,87.2,83.3,86.8,83.3,86.4
			C83.3,86.4,83.3,86.4,83.3,86.4z"/>
		<path class="st0" d="M82,73.5c0-0.5,0-0.9,0-1.4c0-0.2,0-0.2-0.2-0.2c-0.1,0-0.3,0-0.4,0c-0.1,0-0.2,0-0.2-0.2c0-0.2,0-0.3,0-0.5
			c0-0.1,0-0.1,0.1-0.2c0.1,0,0.3,0,0.4,0c0,0,0.1,0,0.1,0c0.1,0,0.1,0,0.1-0.1c0-0.1,0-0.1,0-0.2c0-0.3,0-0.6,0-0.9
			c0-0.1,0-0.1,0.1-0.2c0.2,0,0.4,0,0.6,0c0.1,0,0.2,0,0.3,0c0.1,0,0.1,0,0.1,0.1c0,0.1,0,0.3,0,0.4c0,0.2,0,0.5,0,0.7
			c0,0.1,0,0.2,0.2,0.2c0.3,0,0.5,0,0.8,0c0,0,0.1,0,0.1,0c0.1,0,0.2,0,0.2,0.2c0,0.2,0,0.3,0,0.5c0,0.2,0,0.2-0.2,0.2
			c-0.3,0-0.5,0-0.8,0c-0.2,0-0.2,0-0.2,0.2c0,0.8,0,1.7,0,2.5c0,0.1,0,0.3,0.1,0.4c0.1,0.1,0.2,0.2,0.3,0.2c0.1,0,0.2,0,0.3,0
			c0.1,0,0.3-0.1,0.4-0.1c0.1,0,0.1,0,0.2,0.1c0.1,0.2,0.1,0.4,0.2,0.5c0,0.1,0,0.1-0.1,0.2c-0.4,0.2-0.8,0.3-1.3,0.2
			c-0.2,0-0.3-0.1-0.5-0.1c-0.2-0.1-0.4-0.2-0.5-0.4c-0.2-0.3-0.2-0.6-0.2-0.9C82,74.4,82,74,82,73.5C82,73.5,82,73.5,82,73.5z"/>
		<path class="st0" d="M125.6,73.5c0-0.4,0-0.9,0-1.3c0,0,0,0,0-0.1c0-0.1-0.1-0.2-0.2-0.2c-0.1,0-0.3,0-0.4,0c-0.2,0-0.2,0-0.2-0.2
			c0-0.2,0-0.3,0-0.5c0-0.1,0-0.1,0.1-0.1c0.2,0,0.3,0,0.5,0c0.2,0,0.2,0,0.2-0.2c0-0.3,0-0.7,0-1c0-0.1,0-0.2,0.1-0.2
			c0.3,0,0.6,0,0.8,0c0.1,0,0.1,0,0.1,0.2c0,0.3,0,0.7,0,1c0,0.2,0,0.2,0.2,0.2c0.3,0,0.5,0,0.8,0c0,0,0.1,0,0.1,0
			c0.1,0,0.1,0,0.1,0.1c0,0.2,0,0.3,0,0.5c0,0.2,0,0.2-0.2,0.2c-0.3,0-0.5,0-0.8,0c0,0-0.1,0-0.1,0c-0.1,0-0.1,0-0.1,0.1
			c0,0,0,0,0,0.1c0,0.9,0,1.7,0,2.6c0,0.1,0,0.2,0,0.2c0.1,0.3,0.3,0.4,0.6,0.4c0.1,0,0.3-0.1,0.4-0.1c0.1,0,0.2,0,0.2,0.1
			c0.1,0.2,0.1,0.3,0.2,0.5c0,0.1,0,0.2-0.1,0.2c-0.4,0.2-0.8,0.3-1.3,0.2c-0.2,0-0.3-0.1-0.5-0.1c-0.2-0.1-0.3-0.2-0.5-0.4
			c-0.2-0.3-0.2-0.6-0.2-0.9C125.6,74.4,125.6,74,125.6,73.5C125.6,73.5,125.6,73.5,125.6,73.5z"/>
		<path class="st0" d="M56.1,89.1c-0.3,0-0.5,0-0.8-0.1c-0.2,0-0.4-0.1-0.6-0.2c-0.1,0-0.2-0.1-0.3-0.1c-0.1,0-0.1-0.1,0-0.2
			c0.1-0.2,0.2-0.4,0.3-0.6c0-0.1,0.1-0.1,0.2,0c0.1,0.1,0.2,0.1,0.3,0.2c0.3,0.1,0.7,0.2,1,0.2c0.1,0,0.3,0,0.4-0.1
			c0.2-0.2,0.3-0.3,0.3-0.5c0-0.1-0.1-0.1-0.1-0.2c-0.1-0.1-0.2-0.2-0.4-0.3c-0.2-0.1-0.3-0.2-0.5-0.2c-0.1,0-0.2-0.1-0.3-0.1
			c-0.2-0.1-0.4-0.2-0.6-0.4c-0.5-0.4-0.6-0.9-0.5-1.5c0.1-0.4,0.3-0.6,0.6-0.8c0.1-0.1,0.2-0.1,0.3-0.1c0.3-0.1,0.5-0.2,0.8-0.1
			c0.4,0,0.8,0.1,1.2,0.3c0.1,0,0.1,0.1,0.2,0.1c0.1,0,0.1,0.1,0,0.1c0,0.1-0.1,0.1-0.1,0.2c-0.1,0.1-0.1,0.2-0.2,0.3
			c-0.1,0.1-0.1,0.1-0.2,0.1c-0.1,0-0.2-0.1-0.3-0.1c-0.2-0.1-0.5-0.1-0.7-0.1c-0.1,0-0.3,0-0.4,0.1c-0.3,0.2-0.3,0.5-0.1,0.8
			c0.1,0.1,0.3,0.2,0.5,0.3c0.2,0.1,0.3,0.1,0.5,0.2c0.1,0,0.2,0.1,0.3,0.1c0.3,0.1,0.6,0.3,0.8,0.6c0.1,0.1,0.2,0.3,0.2,0.5
			c0.1,0.3,0,0.5,0,0.8c-0.1,0.4-0.4,0.7-0.7,0.9c-0.2,0.1-0.5,0.2-0.8,0.2C56.3,89.1,56.2,89.1,56.1,89.1z"/>
		<path class="st0" d="M94.8,76.3c-0.3,0-0.6,0-0.8-0.1c-0.2,0-0.4-0.1-0.6-0.2c-0.1,0-0.2-0.1-0.3-0.1c-0.1,0-0.1-0.1-0.1-0.2
			c0.1-0.2,0.2-0.4,0.3-0.6c0-0.1,0.1-0.1,0.2,0c0.1,0.1,0.2,0.1,0.3,0.2c0.3,0.1,0.6,0.2,1,0.2c0.1,0,0.2,0,0.3-0.1
			c0.2,0,0.3-0.1,0.3-0.3c0.1-0.1,0.1-0.4,0-0.5c-0.1-0.1-0.2-0.2-0.3-0.2c-0.2-0.1-0.3-0.2-0.5-0.3c-0.3-0.1-0.5-0.2-0.8-0.4
			c-0.5-0.3-0.8-0.8-0.7-1.4c0-0.4,0.2-0.7,0.5-1c0.2-0.2,0.5-0.3,0.8-0.3c0.5-0.1,1,0,1.5,0.2c0.1,0,0.2,0.1,0.3,0.2
			c0.1,0.1,0.1,0.1,0.1,0.2c-0.1,0.2-0.2,0.4-0.3,0.5c0,0.1-0.1,0.1-0.2,0.1c0,0-0.1,0-0.1,0c-0.3-0.2-0.5-0.2-0.8-0.2
			c-0.2,0-0.4,0-0.6,0.1c-0.2,0.2-0.3,0.5-0.1,0.7c0.1,0.1,0.3,0.3,0.5,0.3c0.2,0.1,0.3,0.1,0.5,0.2c0.1,0,0.2,0.1,0.3,0.1
			c0.3,0.1,0.5,0.3,0.8,0.6c0.2,0.2,0.2,0.4,0.3,0.7c0,0.3,0,0.6-0.1,0.8c-0.1,0.2-0.2,0.3-0.4,0.5c-0.2,0.2-0.5,0.3-0.7,0.3
			C95.1,76.2,94.9,76.2,94.8,76.3z"/>
		<path class="st0" d="M60.6,89.1c-0.3,0-0.5-0.1-0.8-0.1c-0.2,0-0.4-0.1-0.6-0.2c-0.1,0-0.2-0.1-0.2-0.1c-0.1,0-0.1-0.1-0.1-0.2
			c0.1-0.2,0.2-0.4,0.3-0.6c0-0.1,0.1-0.1,0.1,0c0.1,0.1,0.2,0.1,0.3,0.2c0.3,0.1,0.7,0.2,1,0.2c0.2,0,0.3,0,0.5-0.1
			c0.2-0.1,0.3-0.2,0.2-0.5c0-0.1,0-0.2-0.1-0.2c-0.1-0.1-0.3-0.2-0.4-0.3c-0.2-0.1-0.3-0.2-0.5-0.2c-0.1,0-0.2-0.1-0.3-0.1
			c-0.1-0.1-0.3-0.1-0.4-0.2c-0.3-0.2-0.5-0.4-0.7-0.7c-0.2-0.5-0.1-0.9,0.2-1.3c0.1-0.2,0.3-0.3,0.5-0.4c0.3-0.2,0.6-0.2,1-0.2
			c0.3,0,0.7,0.1,1,0.2c0.1,0.1,0.3,0.1,0.4,0.2c0.1,0.1,0.1,0.1,0,0.2c-0.1,0.2-0.2,0.4-0.3,0.5c0,0.1-0.1,0.1-0.1,0.1
			c0,0-0.1,0-0.1,0c-0.1-0.1-0.2-0.1-0.4-0.2c-0.2-0.1-0.4-0.1-0.6-0.1c-0.1,0-0.3,0-0.4,0.1c-0.2,0.2-0.3,0.5-0.1,0.7
			c0.1,0.2,0.3,0.3,0.5,0.4c0.2,0.1,0.4,0.1,0.5,0.2c0.1,0,0.2,0.1,0.3,0.1c0.3,0.1,0.5,0.3,0.7,0.5c0.2,0.2,0.3,0.4,0.3,0.7
			c0,0.3,0,0.6-0.1,0.8c-0.1,0.2-0.2,0.4-0.4,0.5c-0.3,0.2-0.6,0.3-1,0.3C60.8,89.1,60.7,89.1,60.6,89.1z"/>
		<path class="st0" d="M69.5,86.5c0-0.3,0.1-0.7,0.1-1c0.2-0.5,0.4-0.9,0.9-1.2c0.2-0.1,0.5-0.3,0.7-0.3c0.2,0,0.4-0.1,0.6-0.1
			c0.3,0,0.5,0,0.8,0.1c0.2,0,0.4,0.1,0.6,0.2c0.1,0,0.2,0.1,0.3,0.1c0.1,0,0.1,0.1,0,0.1c-0.1,0.2-0.2,0.4-0.3,0.6
			c-0.1,0.1-0.1,0.1-0.2,0c-0.3-0.2-0.5-0.2-0.8-0.3c-0.3,0-0.6,0-0.8,0.2c-0.2,0.1-0.4,0.3-0.5,0.5c-0.2,0.4-0.3,0.9-0.2,1.4
			c0,0.3,0.1,0.5,0.2,0.7c0.1,0.2,0.3,0.4,0.5,0.6c0.3,0.1,0.5,0.2,0.8,0.1c0.2,0,0.4-0.1,0.5-0.1c0.1,0,0.1-0.1,0.2-0.1
			c0,0,0.1,0,0.1,0c0.1,0,0.2,0,0.2,0.1c0.1,0.1,0.1,0.3,0.2,0.4c0.1,0.1,0,0.2-0.1,0.3c-0.3,0.2-0.7,0.3-1.1,0.3
			c-0.4,0.1-0.8,0-1.2-0.1c-0.2-0.1-0.4-0.2-0.6-0.3c-0.2-0.2-0.4-0.3-0.5-0.6c-0.2-0.2-0.3-0.5-0.3-0.8
			C69.5,87,69.5,86.7,69.5,86.5z"/>
		<path class="st0" d="M87.3,86.4c0-0.8,0-1.5,0-2.3c0,0,0,0,0,0c0-0.1,0-0.1,0.1-0.1c0.1,0,0.2,0,0.3,0c0.2,0,0.4,0,0.5,0
			c0.1,0,0.2,0,0.2,0.2c0,1.6,0,3.1,0,4.7c0,0.1,0,0.2-0.2,0.2c-0.3,0-0.5,0-0.8,0c-0.1,0-0.1,0-0.1-0.2c0-0.3,0-0.6,0-0.9
			C87.3,87.5,87.3,87,87.3,86.4C87.3,86.4,87.3,86.4,87.3,86.4z"/>
		<path class="st0" d="M74.9,86.4c0-0.8,0-1.6,0-2.3c0-0.1,0-0.2,0.2-0.2c0.3,0,0.5,0,0.8,0c0,0,0,0,0.1,0c0.1,0,0.1,0,0.1,0.1
			c0,0.1,0,0.1,0,0.2c0,1.5,0,2.9,0,4.4c0,0.1,0,0.1,0,0.2c0,0.1,0,0.1-0.1,0.1c0,0-0.1,0-0.1,0c-0.2,0-0.5,0-0.7,0
			c-0.2,0-0.2,0-0.2-0.2C74.9,88,74.9,87.2,74.9,86.4z"/>
		<path class="st0" d="M88.5,82.5c0,0.3-0.4,0.7-0.7,0.7c-0.3,0-0.7-0.3-0.7-0.8c0-0.3,0.3-0.7,0.7-0.7
			C88.2,81.8,88.6,82.2,88.5,82.5z"/>
		<path class="st0" d="M76.2,82.5c0,0.4-0.4,0.7-0.7,0.7c-0.4,0-0.7-0.3-0.7-0.8c0-0.3,0.3-0.7,0.7-0.7
			C75.9,81.8,76.2,82.2,76.2,82.5z"/>
	</g>
	<path class="st0" d="M51.2,78.5c-0.4,0-0.8,0-1.2-0.2c-0.3-0.1-0.5-0.2-0.7-0.4c-0.2-0.2-0.3-0.5-0.2-0.8c0-0.5,0.3-0.8,0.6-1
		c0,0,0.1-0.1,0.1-0.1c0,0,0-0.1,0-0.1c0,0-0.1-0.1-0.1-0.1c-0.2-0.2-0.3-0.6-0.2-0.9c0.1-0.2,0.2-0.3,0.3-0.4c0,0,0,0,0,0
		c0.1-0.1,0.1-0.1,0-0.2c-0.2-0.2-0.4-0.4-0.5-0.6c-0.1-0.2-0.2-0.5-0.2-0.8c0-0.3,0-0.6,0.2-0.8c0.1-0.1,0.1-0.2,0.2-0.4
		c0.2-0.2,0.4-0.4,0.6-0.5c0.3-0.1,0.5-0.2,0.8-0.2c0.3,0,0.6,0,0.9,0.1c0.1,0,0.3,0.1,0.5,0.1c0.4,0,0.9,0,1.3,0c0,0,0.1,0,0.1,0
		c0.1,0,0.1,0,0.1,0.1c0,0.2,0,0.3,0,0.5c0,0.1,0,0.1-0.1,0.1c-0.1,0-0.2,0-0.3,0c0,0-0.1,0-0.1,0c-0.1,0-0.1,0.1-0.1,0.1
		c0.1,0.1,0.1,0.3,0.1,0.4c0.1,0.3,0.1,0.6,0,0.9c-0.1,0.4-0.3,0.7-0.6,0.9c-0.2,0.1-0.3,0.2-0.5,0.3c-0.3,0.1-0.7,0.2-1.1,0.2
		c-0.1,0-0.3,0-0.4,0c-0.2,0-0.3,0.2-0.3,0.3c0,0.1,0,0.1,0.1,0.2c0.1,0.1,0.2,0.1,0.3,0.1c0.3,0,0.5,0.1,0.8,0.1c0.2,0,0.4,0,0.7,0
		c0.1,0,0.2,0,0.3,0c0.2,0,0.5,0.1,0.7,0.2c0.2,0.1,0.4,0.3,0.5,0.6c0.1,0.3,0.1,0.5,0.1,0.8c0,0.2-0.1,0.3-0.2,0.5
		c-0.1,0.3-0.3,0.4-0.6,0.6c-0.1,0-0.1,0.1-0.2,0.1c-0.3,0.2-0.6,0.2-1,0.3C51.7,78.5,51.5,78.5,51.2,78.5z M51.3,73.9
		c0.2,0,0.4,0,0.6-0.2c0.3-0.2,0.4-0.4,0.4-0.7c0-0.3,0-0.5-0.1-0.7c-0.1-0.2-0.2-0.3-0.4-0.4c-0.3-0.1-0.6-0.2-0.9-0.1
		c-0.1,0-0.2,0.1-0.3,0.1c-0.3,0.2-0.4,0.4-0.5,0.8c0,0.2,0,0.5,0.1,0.7c0.1,0.2,0.2,0.3,0.4,0.4C50.9,73.8,51.1,73.9,51.3,73.9z
		 M51.3,77.7c0.1,0,0.2,0,0.3,0c0.1,0,0.2-0.1,0.4-0.1c0.2,0,0.4-0.1,0.5-0.2c0.2-0.2,0.3-0.4,0.2-0.7c0-0.1-0.1-0.3-0.3-0.3
		c-0.1-0.1-0.3-0.1-0.4-0.1c-0.3,0-0.6,0-0.9-0.1c-0.1,0-0.2,0-0.3,0c-0.2,0-0.3,0-0.4,0.1c0,0-0.1,0-0.1,0.1
		c-0.2,0.2-0.3,0.4-0.3,0.7c0.1,0.3,0.2,0.4,0.4,0.5C50.8,77.7,51.1,77.8,51.3,77.7z"/>
	<path class="st0" d="M55.1,73.6c0-0.8,0-1.5,0-2.3c0,0,0,0,0,0c0-0.1,0-0.1,0.1-0.1c0.3,0,0.6,0,0.8,0c0.1,0,0.1,0,0.1,0.2
		c0,0.1,0,0.2,0,0.2c0,0,0,0.1,0,0.1c0,0.1,0.1,0.1,0.1,0c0,0,0,0,0.1-0.1c0.2-0.3,0.5-0.5,0.9-0.6c0.2,0,0.4,0,0.6,0
		c0,0,0.1,0,0.1,0.1c0.1,0,0.1,0.1,0,0.1c-0.1,0.2-0.1,0.5-0.2,0.7c0,0,0,0,0,0c0,0.1-0.1,0.1-0.2,0.1c-0.1,0-0.3,0-0.4,0
		c-0.2,0-0.4,0.1-0.5,0.2c-0.2,0.1-0.4,0.3-0.5,0.5c-0.1,0.1-0.1,0.2-0.1,0.3c0,0.5,0,1,0,1.5c0,0.5,0,1,0,1.4c0,0.1,0,0.2-0.2,0.2
		c-0.3,0-0.5,0-0.8,0c-0.1,0-0.2,0-0.2-0.2c0-0.4,0-0.8,0-1.1C55.1,74.4,55.1,74,55.1,73.6C55.1,73.6,55.1,73.6,55.1,73.6z"/>
	<path class="st0" d="M112.1,72c0,1,0,2,0,3c0,0.3,0,0.6,0.1,0.9c0,0,0,0,0,0.1c0,0.1,0,0.1-0.1,0.1c0,0,0,0-0.1,0
		c-0.2,0-0.5,0-0.7,0c0,0-0.1,0-0.1,0c-0.1,0-0.1,0-0.2-0.1c0-0.1,0-0.1,0-0.2c0-0.1-0.1-0.1-0.1-0.1c-0.1,0-0.1,0.1-0.2,0.1
		c-0.3,0.3-0.6,0.4-1,0.4c-0.4,0-0.8-0.1-1.2-0.3c-0.2-0.1-0.4-0.3-0.5-0.5c-0.2-0.3-0.3-0.6-0.4-0.9c-0.1-0.3-0.1-0.7-0.1-1
		c0-0.2,0-0.5,0.1-0.7c0.1-0.3,0.2-0.5,0.3-0.8c0.2-0.3,0.4-0.5,0.6-0.7c0.3-0.2,0.7-0.3,1.1-0.4c0.2,0,0.5,0,0.7,0.1
		c0.2,0,0.3,0.1,0.4,0.2c0.1,0.1,0.2,0,0.2-0.1c0,0,0,0,0-0.1c0-0.7,0-1.5,0-2.2c0-0.2,0-0.2,0.2-0.2c0.3,0,0.5,0,0.8,0
		c0.1,0,0.2,0,0.2,0.2C112.1,69.9,112.1,71,112.1,72C112.1,72,112.1,72,112.1,72z M111,73.5L111,73.5c0-0.4,0-0.7,0-1.1
		c0-0.1-0.1-0.2-0.2-0.3c-0.3-0.2-0.6-0.3-1-0.3c-0.3,0-0.6,0.1-0.8,0.4c-0.1,0.2-0.3,0.4-0.3,0.6c-0.1,0.3-0.1,0.5-0.1,0.8
		c0,0.3,0.1,0.7,0.2,1c0.1,0.3,0.3,0.5,0.6,0.6c0.3,0.1,0.6,0.1,0.9-0.1c0.2-0.1,0.3-0.2,0.4-0.3c0.1-0.1,0.1-0.2,0.1-0.3
		C111,74.2,111,73.9,111,73.5z"/>
	<path class="st0" d="M53.1,86.7c0,0.3,0,0.6,0,0.9c0,0.3,0,0.7,0.1,1c0,0.1,0,0.1,0,0.2c0,0.1,0,0.1-0.1,0.2c0,0-0.1,0-0.1,0
		c-0.2,0-0.5,0-0.7,0c-0.1,0-0.2,0-0.2-0.2c0-0.1,0-0.1,0-0.2c0-0.1-0.1-0.1-0.2-0.1c-0.1,0.1-0.1,0.1-0.2,0.2
		c-0.1,0.1-0.2,0.1-0.3,0.2C51.2,89,51.1,89,51,89c-0.2,0-0.4,0.1-0.6,0c-0.4-0.1-0.7-0.2-1-0.5c-0.1-0.1-0.2-0.2-0.2-0.4
		c0-0.1,0-0.1-0.1-0.2c-0.1-0.3,0-0.7,0.2-1c0.1-0.2,0.3-0.4,0.5-0.6c0.4-0.2,0.7-0.3,1.1-0.4c0.3,0,0.6-0.1,0.8-0.1
		c0.1,0,0.2,0,0.2-0.2c0-0.1,0-0.2,0-0.3c0-0.2,0-0.3-0.1-0.5c0-0.1-0.1-0.2-0.2-0.2c-0.1-0.1-0.3-0.1-0.4-0.1c-0.2,0-0.4,0-0.6,0.1
		c-0.3,0.1-0.5,0.2-0.7,0.3c0,0-0.1,0-0.1,0.1c-0.1,0-0.1,0-0.2,0c-0.1-0.2-0.2-0.3-0.3-0.5c-0.1-0.1-0.1-0.1,0-0.2
		c0.2-0.2,0.4-0.3,0.7-0.4c0.2-0.1,0.5-0.2,0.7-0.2c0.4-0.1,0.8,0,1.2,0.1c0.2,0.1,0.4,0.1,0.6,0.3c0.2,0.1,0.3,0.3,0.3,0.4
		c0.1,0.2,0.1,0.4,0.2,0.6c0,0.2,0,0.3,0,0.5C53.1,86.1,53.1,86.4,53.1,86.7z M52,87.2c0-0.1,0-0.2,0-0.4c0-0.1,0-0.2-0.2-0.2
		c-0.3,0-0.7,0-1,0.1c-0.3,0.1-0.6,0.5-0.6,0.9c0,0.2,0.2,0.5,0.4,0.5c0.1,0,0.3,0,0.4,0c0.2,0,0.3-0.1,0.4-0.1
		c0.2-0.1,0.3-0.2,0.5-0.3c0.1-0.1,0.1-0.1,0.1-0.2C52,87.4,52,87.3,52,87.2z"/>
	<path class="st0" d="M62.9,73.9c0,0.4,0,0.8,0,1.1c0,0.2,0,0.5,0,0.7c0,0.1,0,0.1,0,0.2c0,0.1,0,0.1-0.1,0.2c0,0-0.1,0-0.1,0
		c-0.2,0-0.5,0-0.7,0c-0.1,0-0.2,0-0.2-0.2c0-0.1,0-0.1,0-0.2c0-0.1-0.1-0.2-0.2-0.1c0,0-0.1,0.1-0.1,0.1c-0.1,0.1-0.3,0.2-0.5,0.3
		c-0.1,0.1-0.2,0.1-0.4,0.1c-0.2,0-0.4,0.1-0.6,0c-0.4-0.1-0.7-0.2-1-0.5c-0.1-0.1-0.2-0.2-0.2-0.4c0-0.2-0.1-0.4-0.1-0.6
		c0.1-0.4,0.2-0.8,0.5-1c0.3-0.3,0.7-0.4,1.1-0.5c0.4-0.1,0.7-0.1,1.1-0.1c0.1,0,0.2,0,0.2-0.2c0-0.1,0-0.2,0-0.3
		c0-0.2,0-0.3-0.1-0.5c-0.1-0.1-0.1-0.2-0.2-0.2c-0.1-0.1-0.3-0.1-0.4-0.1c-0.3,0-0.5,0-0.8,0.1c-0.1,0-0.2,0.1-0.4,0.2
		c-0.1,0-0.1,0.1-0.2,0.1c-0.1,0-0.1,0-0.2,0c-0.1-0.1-0.2-0.3-0.3-0.4c0,0,0,0,0-0.1c0-0.1,0-0.1,0-0.2c0.1-0.1,0.2-0.2,0.3-0.2
		c0.6-0.3,1.2-0.4,1.9-0.4c0.3,0,0.6,0.1,0.8,0.3c0.2,0.1,0.4,0.3,0.5,0.6c0.1,0.2,0.1,0.4,0.2,0.6c0,0.2,0,0.5,0,0.7
		C62.9,73.4,62.9,73.6,62.9,73.9L62.9,73.9z M61.8,74.4C61.8,74.4,61.8,74.4,61.8,74.4c0-0.1,0-0.3,0-0.4c0-0.1,0-0.1-0.1-0.1
		c-0.3,0-0.7,0-1,0.1c-0.3,0.1-0.6,0.5-0.6,0.9c0,0.3,0.2,0.5,0.5,0.5c0.2,0,0.5,0,0.7-0.1c0.2-0.1,0.4-0.2,0.5-0.3
		c0.1-0.1,0.1-0.1,0.1-0.2C61.8,74.6,61.8,74.5,61.8,74.4z"/>
	<path class="st0" d="M68.7,72.1c0,1,0,2,0,3c0,0.3,0,0.6,0.1,0.9c0,0,0,0.1,0,0.1c0,0.1,0,0.1-0.1,0.1c0,0,0,0,0,0
		c-0.3,0-0.5,0-0.8,0c-0.1,0-0.2,0-0.2-0.2c0-0.1,0-0.1,0-0.2c0-0.1-0.1-0.1-0.1,0c-0.1,0-0.1,0.1-0.2,0.1c-0.3,0.3-0.7,0.4-1.2,0.4
		c-0.3,0-0.6-0.1-0.9-0.2c-0.3-0.1-0.6-0.4-0.7-0.7c-0.1-0.2-0.2-0.5-0.3-0.7c-0.1-0.4-0.1-0.7-0.1-1.1c0-0.2,0-0.5,0.1-0.7
		c0.1-0.3,0.2-0.5,0.3-0.8c0.1-0.2,0.3-0.4,0.5-0.6c0.4-0.4,0.9-0.5,1.4-0.5c0.3,0,0.7,0.1,1,0.3c0,0,0,0,0.1,0c0.1,0,0.1,0,0.1-0.1
		c0,0,0-0.1,0-0.1c0-0.7,0-1.5,0-2.2c0,0,0,0,0-0.1c0-0.1,0-0.1,0.1-0.1c0,0,0.1,0,0.1,0c0.2,0,0.5,0,0.7,0c0.1,0,0.2,0,0.2,0.2
		C68.7,69.9,68.7,71,68.7,72.1C68.7,72.1,68.7,72.1,68.7,72.1z M67.6,73.5L67.6,73.5c0-0.4,0-0.7,0-1.1c0-0.1,0-0.2-0.1-0.3
		c-0.3-0.2-0.7-0.3-1-0.3c-0.2,0-0.3,0.1-0.4,0.2c-0.3,0.2-0.5,0.5-0.6,0.8c-0.1,0.4-0.1,0.9-0.1,1.3c0,0.2,0.1,0.5,0.2,0.7
		c0.1,0.2,0.3,0.4,0.6,0.5c0.2,0.1,0.4,0.1,0.6,0.1c0.3-0.1,0.6-0.2,0.8-0.4c0.1-0.1,0.1-0.2,0.1-0.3C67.6,74.2,67.6,73.9,67.6,73.5
		z"/>
	<path class="st0" d="M80.1,73.8c0,0.5,0,0.9,0,1.3c0,0.3,0,0.6,0.1,0.9c0,0.1,0,0.1-0.1,0.1c0,0-0.1,0-0.1,0c-0.2,0-0.5,0-0.7,0
		c-0.1,0-0.2,0-0.2-0.2c0-0.1,0-0.1,0-0.2c0-0.1-0.1-0.1-0.2-0.1c-0.1,0-0.1,0.1-0.2,0.2c-0.1,0.1-0.2,0.2-0.4,0.2
		c-0.1,0.1-0.3,0.1-0.4,0.1c-0.3,0.1-0.6,0.1-0.8,0c-0.1-0.1-0.3-0.1-0.4-0.2c-0.2-0.2-0.4-0.4-0.5-0.7c0-0.1-0.1-0.2-0.1-0.3
		c0-0.1,0-0.2,0-0.3c0-0.2,0.1-0.4,0.2-0.6c0.1-0.1,0.2-0.2,0.3-0.3c0.3-0.3,0.7-0.5,1.2-0.6c0.2,0,0.3-0.1,0.5-0.1
		c0.2,0,0.4,0,0.6,0c0.2,0,0.2,0,0.2-0.2c0-0.1,0-0.1,0-0.2c0-0.2,0-0.3-0.1-0.5c0-0.1-0.1-0.1-0.2-0.2c-0.1-0.1-0.3-0.1-0.4-0.1
		c-0.3,0-0.5,0-0.8,0.1c-0.1,0-0.2,0.1-0.4,0.2c-0.1,0-0.1,0.1-0.2,0.1c-0.1,0-0.1,0-0.2,0c-0.1-0.2-0.2-0.3-0.3-0.5
		c-0.1-0.1-0.1-0.2,0-0.2c0.2-0.1,0.3-0.2,0.5-0.3c0.4-0.2,0.8-0.3,1.2-0.3c0.3,0,0.6,0,0.9,0.1c0.3,0.1,0.6,0.3,0.8,0.6
		c0.1,0.2,0.2,0.4,0.2,0.7C80.1,72.9,80,73.4,80.1,73.8z M78.9,74.4c0-0.1,0-0.3,0-0.4c0-0.1,0-0.1-0.1-0.1c-0.3,0-0.7,0-1,0.1
		c-0.3,0.1-0.6,0.5-0.6,0.9c0,0.2,0.2,0.5,0.4,0.5c0.3,0.1,0.5,0,0.7-0.1c0.2-0.1,0.3-0.2,0.5-0.3c0.1-0.1,0.1-0.1,0.1-0.2
		C78.9,74.6,78.9,74.5,78.9,74.4z"/>
	<path class="st0" d="M88.2,73.8c-0.5,0-0.9,0-1.4,0c-0.2,0-0.3,0-0.2,0.3c0,0.2,0.1,0.4,0.2,0.6c0.1,0.2,0.2,0.3,0.3,0.4
		c0.1,0.1,0.2,0.1,0.3,0.2c0.5,0.2,0.9,0.2,1.4,0c0.2,0,0.3-0.1,0.5-0.2c0.1-0.1,0.2,0,0.2,0.1c0.1,0.1,0.1,0.3,0.2,0.4
		c0.1,0.1,0,0.2-0.1,0.3c-0.1,0-0.2,0.1-0.2,0.1c-0.2,0.1-0.3,0.1-0.5,0.2c-0.1,0-0.1,0-0.2,0c-0.3,0.1-0.6,0.1-0.9,0.1
		c-0.2,0-0.5-0.1-0.7-0.1c-0.2-0.1-0.4-0.2-0.6-0.3c-0.2-0.2-0.4-0.4-0.6-0.6c-0.1-0.1-0.1-0.2-0.2-0.3c-0.1-0.2-0.2-0.5-0.2-0.7
		c0-0.2-0.1-0.5-0.1-0.7c0-0.5,0.1-0.9,0.3-1.3c0.1-0.2,0.2-0.4,0.4-0.5c0.2-0.2,0.4-0.3,0.6-0.5c0.1-0.1,0.3-0.1,0.4-0.2
		c0.3-0.1,0.6-0.1,0.8-0.1c0.3,0,0.6,0.1,0.9,0.3c0.3,0.1,0.5,0.4,0.6,0.6c0.2,0.4,0.3,0.8,0.3,1.2c0,0,0,0,0,0c0.1,0.2,0,0.3,0,0.5
		c0,0.1,0,0.1-0.1,0.1c0,0-0.1,0-0.1,0C89.1,73.8,88.6,73.8,88.2,73.8C88.2,73.8,88.2,73.8,88.2,73.8z M87.7,73
		C87.7,73,87.7,73,87.7,73c0.3,0,0.6,0,0.9,0c0.1,0,0.2,0,0.1-0.2c0-0.2-0.1-0.5-0.2-0.7c-0.1-0.1-0.2-0.2-0.4-0.3
		c-0.2-0.1-0.4-0.1-0.6,0c-0.1,0-0.2,0-0.2,0c-0.3,0.1-0.5,0.3-0.6,0.6c0,0.1-0.1,0.2-0.1,0.3c0,0.1,0,0.2,0.1,0.2c0,0,0.1,0,0.1,0
		C87.1,73,87.4,73,87.7,73z"/>
	<path class="st0" d="M116.4,73.8c-0.5,0-0.9,0-1.4,0c-0.2,0-0.3,0-0.2,0.2c0,0.2,0.1,0.4,0.2,0.6c0.1,0.2,0.2,0.3,0.3,0.4
		c0.1,0.1,0.2,0.2,0.4,0.3c0.3,0.1,0.6,0.1,0.9,0.1c0.2,0,0.5-0.1,0.7-0.2c0.1,0,0.2-0.1,0.3-0.1c0.1-0.1,0.2,0,0.2,0.1
		c0.1,0.1,0.1,0.3,0.2,0.4c0.1,0.1,0,0.2-0.1,0.3c-0.2,0.1-0.5,0.3-0.8,0.3c-0.2,0-0.4,0.1-0.7,0.1c0,0-0.1,0-0.1,0
		c-0.5,0-0.9-0.1-1.3-0.3c-0.2-0.1-0.5-0.3-0.6-0.5c-0.2-0.2-0.3-0.4-0.4-0.7c-0.2-0.5-0.3-1-0.2-1.6c0-0.4,0.2-0.8,0.4-1.1
		c0.1-0.2,0.3-0.4,0.5-0.6c0.3-0.2,0.6-0.4,1-0.5c0.2-0.1,0.5,0,0.7,0c0.3,0,0.6,0.1,0.9,0.3c0.2,0.1,0.4,0.3,0.5,0.5
		c0.2,0.3,0.3,0.6,0.4,1c0,0.1,0,0.3,0,0.4c0,0,0,0,0,0c0.1,0.2,0,0.3,0,0.5c0,0.1,0,0.1-0.1,0.2c0,0-0.1,0-0.1,0
		C117.3,73.8,116.9,73.8,116.4,73.8C116.4,73.8,116.4,73.8,116.4,73.8z M115.9,73C115.9,73,115.9,73,115.9,73c0.3,0,0.6,0,0.9,0
		c0.1,0,0.1,0,0.1-0.2c0-0.1-0.1-0.3-0.1-0.4c-0.1-0.3-0.3-0.5-0.7-0.6c-0.1,0-0.1,0-0.2,0c-0.2,0-0.4,0-0.6,0.2
		c-0.2,0.1-0.3,0.3-0.4,0.5c0,0.1-0.1,0.2-0.1,0.4c0,0.1,0,0.2,0.1,0.2c0,0,0.1,0,0.1,0C115.3,73,115.6,73,115.9,73z"/>
	<path class="st0" d="M63.6,86.5c0-0.3,0-0.5,0.1-0.8c0.1-0.3,0.2-0.5,0.3-0.8c0.1-0.2,0.3-0.5,0.5-0.6c0.2-0.1,0.4-0.3,0.6-0.3
		c0.2-0.1,0.4-0.1,0.6-0.1c0.2,0,0.5,0,0.7,0c0.1,0,0.2,0,0.3,0.1c0.5,0.1,1,0.4,1.3,0.8c0.1,0.2,0.3,0.4,0.3,0.6
		c0.2,0.4,0.2,0.8,0.2,1.2c0,0.2,0,0.4-0.1,0.6c0,0.3-0.1,0.5-0.3,0.8c-0.2,0.3-0.4,0.6-0.8,0.8c-0.2,0.2-0.5,0.3-0.8,0.3
		c-0.2,0-0.3,0.1-0.5,0.1c-0.2,0-0.3,0-0.5,0c-0.1,0-0.3,0-0.4-0.1c-0.1,0-0.2-0.1-0.4-0.2c-0.3-0.1-0.5-0.3-0.7-0.5
		c-0.2-0.2-0.3-0.4-0.4-0.6c-0.1-0.3-0.2-0.6-0.2-0.9C63.6,86.7,63.6,86.6,63.6,86.5z M67.3,86.3c0-0.2-0.1-0.6-0.2-0.9
		c-0.1-0.3-0.3-0.5-0.7-0.7c-0.3-0.1-0.7-0.1-1,0c-0.2,0.1-0.4,0.3-0.5,0.5c-0.1,0.3-0.2,0.6-0.2,0.9c0,0.5,0,0.9,0.2,1.4
		c0.2,0.4,0.4,0.6,0.9,0.7c0.3,0,0.6,0,0.8-0.1c0.2-0.1,0.4-0.3,0.5-0.5C67.3,87.3,67.3,86.9,67.3,86.3z"/>
	<path class="st0" d="M81.3,86.6c0,0.5,0,0.9,0,1.3c0,0.3,0,0.6,0.1,0.9c0,0.1,0,0.1-0.1,0.2c0,0,0,0-0.1,0c-0.2,0-0.5,0-0.7,0
		c-0.1,0-0.2,0-0.2-0.2c0-0.1,0-0.1,0-0.2c0-0.1-0.1-0.1-0.2-0.1c-0.1,0-0.1,0.1-0.2,0.2c-0.1,0.1-0.2,0.2-0.4,0.2
		C79.5,89,79.3,89,79.2,89c-0.2,0-0.4,0.1-0.6,0c-0.4-0.1-0.7-0.2-1-0.5c-0.1-0.1-0.2-0.2-0.2-0.4c0-0.1,0-0.2-0.1-0.2
		c-0.1-0.5,0.1-1,0.5-1.4c0.3-0.3,0.7-0.4,1.1-0.5c0.1,0,0.3-0.1,0.4-0.1c0.2,0,0.3,0,0.5,0c0.1,0,0.1,0,0.2,0c0.1,0,0.1,0,0.1-0.1
		c0-0.2,0-0.4,0-0.5c0-0.2-0.2-0.4-0.4-0.5c-0.3-0.1-0.6-0.1-0.9,0c-0.3,0.1-0.5,0.2-0.7,0.3c0,0-0.1,0-0.1,0.1c-0.1,0-0.1,0-0.2,0
		c-0.1-0.2-0.2-0.3-0.3-0.5c-0.1-0.1-0.1-0.1,0-0.2c0.2-0.1,0.3-0.2,0.5-0.3c0.4-0.2,0.8-0.3,1.2-0.3c0.3,0,0.6,0,0.9,0.1
		c0.2,0.1,0.5,0.2,0.6,0.4c0.2,0.2,0.3,0.5,0.3,0.8C81.4,85.7,81.3,86.2,81.3,86.6z M80.2,87.2L80.2,87.2c0-0.1,0-0.3,0-0.4
		c0-0.1,0-0.2-0.2-0.2c-0.3,0-0.7,0-1,0.1c-0.4,0.1-0.6,0.5-0.6,0.9c0,0.2,0.2,0.5,0.4,0.5c0.3,0.1,0.5,0,0.7-0.1
		c0.2-0.1,0.4-0.2,0.5-0.3c0.1-0.1,0.1-0.1,0.1-0.2C80.2,87.4,80.2,87.3,80.2,87.2z"/>
	<path class="st0" d="M89.6,86.5c0-0.3,0-0.5,0.1-0.8c0.1-0.3,0.1-0.5,0.3-0.7c0.1-0.3,0.3-0.5,0.6-0.7c0.2-0.1,0.4-0.3,0.6-0.3
		c0.2-0.1,0.4-0.1,0.6-0.1c0.2,0,0.5,0,0.7,0c0.1,0,0.2,0,0.3,0.1c0.6,0.1,1,0.4,1.3,0.8c0.1,0.2,0.2,0.4,0.3,0.6
		c0.2,0.4,0.2,0.8,0.2,1.2c0,0.2,0,0.4-0.1,0.6c-0.1,0.3-0.2,0.5-0.3,0.7c-0.2,0.3-0.4,0.6-0.8,0.8c-0.2,0.2-0.5,0.3-0.8,0.3
		c-0.2,0-0.3,0.1-0.5,0.1c-0.2,0-0.3,0-0.5,0c-0.1,0-0.3-0.1-0.4-0.1c-0.1,0-0.2-0.1-0.4-0.2c-0.2-0.1-0.4-0.3-0.6-0.4
		c-0.2-0.2-0.3-0.4-0.4-0.7c-0.1-0.2-0.2-0.5-0.2-0.8C89.7,86.8,89.7,86.6,89.6,86.5z M93.4,86.5c0-0.4-0.1-0.7-0.2-1.1
		c-0.2-0.4-0.5-0.7-1-0.7c-0.1,0-0.3,0-0.4,0c-0.4,0.1-0.6,0.3-0.8,0.6c-0.1,0.3-0.2,0.6-0.2,0.9c0,0.5,0,0.9,0.2,1.3
		c0.1,0.2,0.2,0.4,0.4,0.5c0.1,0.1,0.2,0.1,0.4,0.2c0.2,0.1,0.4,0.1,0.6,0c0.4-0.1,0.6-0.3,0.8-0.6C93.3,87.3,93.4,86.9,93.4,86.5z"
		/>
	<g>
		<path class="st1" d="M49.6,58.4h1v3.3c0,0.3,0.1,0.5,0.3,0.6s0.4,0.2,0.7,0.2c0.3,0,0.6-0.1,0.8-0.2c0.2-0.2,0.3-0.4,0.3-0.7v-3.3
			h1v3.3c0,0.5-0.2,0.9-0.6,1.2c-0.4,0.3-0.9,0.4-1.5,0.4c-0.6,0-1.1-0.1-1.5-0.4c-0.3-0.3-0.5-0.7-0.5-1.2V58.4z"/>
		<path class="st1" d="M58.9,63.3l-2.6-3.1v3h-0.9v-4.8h0.5l2.6,2.9v-2.9h0.9v4.9H58.9z"/>
		<path class="st1" d="M60.9,63.3v-4.8h1v4.8H60.9z"/>
		<path class="st1" d="M65.6,63.3h-0.5l-2-4.9h1.1l1.3,3.3l1.3-3.3h1L65.6,63.3z"/>
		<path class="st1" d="M69.8,59.2v1.1h1.8v0.7h-1.8v1.5h2.5v0.8h-3.4v-4.8h3.5v0.8H69.8z"/>
		<path class="st1" d="M76.8,63.3l-1.4-2c-0.1,0-0.3,0-0.6,0v2h-1v-4.8c0.1,0,0.3,0,0.6,0c0.4,0,0.7,0,0.9,0c1.4,0,2.1,0.5,2.1,1.4
			c0,0.3-0.1,0.5-0.3,0.8c-0.2,0.2-0.4,0.4-0.7,0.5l1.6,2.2H76.8z M74.8,59.2v1.3c0.2,0,0.3,0,0.4,0c0.4,0,0.7-0.1,0.9-0.2
			c0.2-0.1,0.3-0.3,0.3-0.6c0-0.2-0.1-0.4-0.3-0.5c-0.2-0.1-0.5-0.1-0.9-0.1C75,59.2,74.9,59.2,74.8,59.2z"/>
		<path class="st1" d="M78.7,63l0.4-0.8c0.4,0.2,0.8,0.4,1.1,0.4c0.6,0,0.8-0.2,0.8-0.5c0-0.2-0.1-0.3-0.2-0.5
			c-0.1-0.1-0.4-0.3-0.8-0.5c-0.4-0.2-0.7-0.3-0.8-0.5c-0.1-0.1-0.3-0.3-0.3-0.4c-0.1-0.2-0.1-0.3-0.1-0.5c0-0.4,0.2-0.7,0.5-0.9
			c0.3-0.2,0.7-0.4,1.2-0.4c0.6,0,1.1,0.1,1.4,0.3l-0.3,0.7c-0.3-0.2-0.7-0.3-1.1-0.3c-0.2,0-0.4,0.1-0.5,0.2
			c-0.1,0.1-0.2,0.2-0.2,0.4c0,0.3,0.3,0.6,1,0.9c0.4,0.2,0.6,0.3,0.8,0.4c0.2,0.1,0.3,0.3,0.4,0.5c0.1,0.2,0.1,0.4,0.1,0.6
			c0,0.4-0.2,0.7-0.5,1c-0.3,0.3-0.8,0.4-1.4,0.4C79.6,63.4,79.1,63.2,78.7,63z"/>
		<path class="st1" d="M83.4,63.3v-4.8h1v4.8H83.4z"/>
		<path class="st1" d="M88.3,59.2v4.1h-1v-4.1h-1.7v-0.8h4.5v0.8H88.3z"/>
		<path class="st1" d="M93.5,61.3v2h-1v-2l-1.8-2.9h1l1.3,2.1l1.3-2.1h1L93.5,61.3z"/>
		<path class="st1" d="M99,60.8c0-0.7,0.2-1.3,0.6-1.8c0.4-0.5,1-0.7,1.7-0.7c0.8,0,1.4,0.2,1.8,0.6c0.4,0.4,0.6,1,0.6,1.8
			c0,0.8-0.2,1.4-0.6,1.9c-0.4,0.5-1,0.7-1.8,0.7c-0.7,0-1.3-0.2-1.7-0.7C99.2,62.2,99,61.6,99,60.8z M100,60.8c0,0.6,0.1,1,0.3,1.3
			c0.2,0.3,0.5,0.5,0.9,0.5c0.5,0,0.8-0.2,1.1-0.5c0.3-0.3,0.4-0.7,0.4-1.3c0-1.1-0.5-1.7-1.4-1.7c-0.4,0-0.8,0.2-1,0.5
			C100.1,59.9,100,60.3,100,60.8z"/>
		<path class="st1" d="M106.1,59.2v1.1h1.9v0.7h-1.9v2.2h-1v-4.8h3.6v0.8H106.1z"/>
		<path class="st1" d="M118,63.3h-0.9l-0.6-2.6l-1.1,2.7h-0.3l-1.1-2.7l-0.6,2.6h-0.9l1.1-4.8h0.5l1.2,3.3l1.1-3.3h0.5L118,63.3z"/>
		<path class="st1" d="M120.1,59.2v1.1h1.8v0.7h-1.8v1.5h2.5v0.8h-3.4v-4.8h3.5v0.8H120.1z"/>
		<path class="st1" d="M124,63.3v-4.8h1v4.1h2.4v0.8H124z"/>
		<path class="st1" d="M130.5,63.3h-1.7v-4.8c0.7,0,1.2,0,1.5,0c0.6,0,1,0.1,1.3,0.3c0.3,0.2,0.5,0.5,0.5,0.9c0,0.4-0.2,0.7-0.7,0.9
			c0.7,0.2,1,0.6,1,1.3c0,0.4-0.2,0.8-0.6,1S131,63.3,130.5,63.3z M129.8,59.1v1.2c0.1,0,0.3,0,0.5,0c0.6,0,0.9-0.2,0.9-0.6
			c0-0.4-0.3-0.6-0.9-0.6C130.2,59.1,130,59.1,129.8,59.1z M129.8,61v1.6c0.2,0,0.4,0,0.5,0c0.4,0,0.7-0.1,0.9-0.2
			c0.2-0.1,0.3-0.3,0.3-0.6c0-0.3-0.1-0.5-0.3-0.6c-0.2-0.1-0.5-0.2-0.9-0.2C130.2,60.9,130,60.9,129.8,61z"/>
		<path class="st1" d="M133.6,60.8c0-0.7,0.2-1.3,0.6-1.8c0.4-0.5,1-0.7,1.7-0.7c0.8,0,1.4,0.2,1.8,0.6c0.4,0.4,0.6,1,0.6,1.8
			c0,0.8-0.2,1.4-0.6,1.9c-0.4,0.5-1,0.7-1.8,0.7c-0.7,0-1.3-0.2-1.7-0.7C133.8,62.2,133.6,61.6,133.6,60.8z M134.6,60.8
			c0,0.6,0.1,1,0.3,1.3c0.2,0.3,0.5,0.5,0.9,0.5c0.5,0,0.8-0.2,1.1-0.5c0.3-0.3,0.4-0.7,0.4-1.3c0-1.1-0.5-1.7-1.4-1.7
			c-0.4,0-0.8,0.2-1,0.5C134.7,59.9,134.6,60.3,134.6,60.8z"/>
		<path class="st1" d="M139.8,58.4h1v3.3c0,0.3,0.1,0.5,0.3,0.6c0.2,0.2,0.4,0.2,0.7,0.2c0.3,0,0.6-0.1,0.8-0.2
			c0.2-0.2,0.3-0.4,0.3-0.7v-3.3h1v3.3c0,0.5-0.2,0.9-0.6,1.2c-0.4,0.3-0.9,0.4-1.5,0.4c-0.6,0-1.1-0.1-1.5-0.4
			c-0.3-0.3-0.5-0.7-0.5-1.2V58.4z"/>
		<path class="st1" d="M148.5,63.3l-1.4-2c-0.1,0-0.3,0-0.6,0v2h-1v-4.8c0.1,0,0.3,0,0.6,0c0.4,0,0.7,0,0.9,0c1.4,0,2.1,0.5,2.1,1.4
			c0,0.3-0.1,0.5-0.3,0.8c-0.2,0.2-0.4,0.4-0.7,0.5l1.6,2.2H148.5z M146.5,59.2v1.3c0.2,0,0.3,0,0.4,0c0.4,0,0.7-0.1,0.9-0.2
			c0.2-0.1,0.3-0.3,0.3-0.6c0-0.2-0.1-0.4-0.3-0.5c-0.2-0.1-0.5-0.1-0.9-0.1C146.7,59.2,146.6,59.2,146.5,59.2z"/>
		<path class="st1" d="M154.2,63.3l-2.6-3.1v3h-0.9v-4.8h0.5l2.6,2.9v-2.9h0.9v4.9H154.2z"/>
		<path class="st1" d="M157.3,59.2v1.1h1.8v0.7h-1.8v1.5h2.5v0.8h-3.4v-4.8h3.5v0.8H157.3z"/>
	</g>
	<g>
		<path class="st2" d="M58,4c-7.8,0.6-13.5,5-12.9,13.5c0.5,7.1,6.9,10,12.3,12.4c3.3,1.5,7.6,3,8.5,5.8c0.4,1.2,0.4,2.3,0,3.3
			c-2.2,6.1-15.2,3.4-18.6,0c-1,2.2-2.3,4.1-3.3,6.2c10.1,7.1,31.3,5.9,30.1-10c-0.4-5.4-4.7-8.4-8.8-10.4
			c-3.4-1.7-10.7-3.6-12.1-7.2c-1-2.6,0.2-4.9,1.9-5.9c4.3-2.6,11.3,0,14,2.2c1.3-2,2.5-4,3.7-5.9C68.8,5.3,64.3,3.5,58,4z"/>
		<path class="st2" d="M37.7,0c1.5,4.2-0.7,8.5-4,9.4c1.7,2.4,3.4,5.3,3.7,9.2c1,12.5-8.4,19-20.6,18.2c-9.8-0.7-17.3-7.5-16.5-18
			C1.3,8.9,9,3.3,20.2,3.6C26.5,3.8,35.8,5.1,37.7,0z M8.4,20.3c0,5.6,3.7,9.9,9.2,10.4c2.2,0.2,4.8,0,7.1-1.2
			c3.9-2.2,6.6-8.9,3.7-14.6c-1.4-2.7-5-5.2-9.5-5.1C12.3,9.9,8.4,14,8.4,20.3z"/>
		<g>
			<path class="st3" d="M113.3,32.8c0-10.6,1.4-21-4.5-25.7c-2.7-2.2-7.2-3.4-12.1-3.1C91.4,4.4,86.2,5.9,82,10.1l4.1,5.4
				c3.8-3.5,11.1-6.7,16.3-3.5c2.9,1.8,2.7,5.8,2.7,10.5c-9.1-0.1-17.2,1.6-21.5,6.6c-2.8,3.3-3.7,8.9-2,13.2
				c1.4,3.6,4.8,6.7,10.2,7.1c6.9,0.5,10.5-2.4,14-5.6c1.6,3.5,6.7,5.5,11.6,4.1C112.7,46.2,113.3,39.1,113.3,32.8z M105.3,37.1
				c-0.3,1.3-2.7,3.1-4.2,4c-3.6,2.1-9.6,2.6-11.5-1.1c-1.4-2.7-0.2-6,1.1-7.7c2.8-3.4,8.8-3.9,14.6-4L105.3,37.1z"/>
		</g>
		<path class="st2" d="M4.3,38.8c1.8,5.2,10.8,4.6,17.3,5c10.8,0.6,19.8,2.2,19.8,13.6c0,8.6-7.6,12.8-15,14.5
			C15.1,74.4,0,72.2,0,60.2c0-6.4,3.8-9.1,7.7-11.6C4.6,47.4,2.6,42.8,4.3,38.8z M8.3,61.8c1.7,4.1,7.4,5.2,13.1,4.8
			c5.2-0.4,10.1-2.6,11.5-6.4c0.6-1.8,0.6-4.3-0.4-5.9c-2.6-4.6-13.2-3.1-19.2-4C10.1,52,6.1,56.7,8.3,61.8z"/>
	</g>
</g>
</svg>
